<?xml version="1.0" encoding="utf-8"?>
<!-- Generator: Adobe Illustrator 23.0.6, SVG Export Plug-In . SVG Version: 6.00 Build 0)  -->
<svg version="1.1" id="full_x5F_colour" xmlns="http://www.w3.org/2000/svg" xmlns:xlink="http://www.w3.org/1999/xlink" x="0px"
	 y="0px" viewBox="0 0 181 181" style="enable-background:new 0 0 181 181;" xml:space="preserve">
<style type="text/css">
	.st0{fill:none;}
	.st1{opacity:0.9;fill:#3DADBD;enable-background:new    ;}
	.st2{opacity:0.3;fill:#3DADBD;enable-background:new    ;}
	.st3{opacity:0.6;}
	.st4{opacity:0.8;fill:#FA8565;enable-background:new    ;}
	.st5{fill:#E0495F;}
	.st6{opacity:0.6;fill:#FA8565;enable-background:new    ;}
</style>
<rect id="bg" class="st0" width="181" height="181"/>
<g id="logo">
	<path id="outer_outline" class="st1" d="M90.1,152.2c-34.1,0-61.8-27.7-61.8-61.8c0-34.1,27.7-61.8,61.8-61.8
		c24.7,0,47,14.7,56.8,37.4l-7.8,3.3C127.5,42.2,96.1,29.7,69,41.3s-39.6,43.1-27.9,70.1s43.1,39.6,70.1,27.9
		c12.2-5.3,22-14.9,27.5-27.1l7.7,3.5C136.5,137.9,114.4,152.2,90.1,152.2z"/>
	<path id="side_outline" class="st2" d="M146.3,115.8l-7.7-3.5c6.2-13.7,6.3-29.3,0.4-43.1l7.8-3.3
		C153.6,81.8,153.4,99.9,146.3,115.8L146.3,115.8z"/>
	<g id="k">
		<g id="overlay" class="st3">
			<path id="bottom" class="st4" d="M97.5,88L97.5,88c9.4,0,16.9,7.6,16.9,16.9c0,0,0,0,0,0.1v16.8l0,0H97.5l0,0V88L97.5,88z"/>
			<path id="side" class="st4" d="M70.4,50.7h0.4c9.1,0,16.6,7.4,16.6,16.6v54.6l0,0h-17l0,0L70.4,50.7L70.4,50.7z"/>
			<path id="middle" class="st4" d="M105.7,63.7L105.7,63.7L70.4,98.9v22.9v0.1l35.2-35.2C111.9,80.3,112,70.1,105.7,63.7
				C105.7,63.7,105.7,63.7,105.7,63.7z"/>
		</g>
		<g id="inner_outline_cutout">
			<path id="bottom-2" class="st5" d="M100,90.9l-0.3,0.3v27.2h11.8v-13.8C111.5,97.9,106.6,92.1,100,90.9z"/>
			<g id="side-2">
				<path id="top" class="st5" d="M85.1,87V68.6c0-6.5-4.8-12.1-11.2-13.1v42.7L85.1,87z"/>
				<polygon id="bottom-3" class="st5" points="73.9,116.1 73.9,118.5 85.1,118.5 85.1,105.2 				"/>
			</g>
			<path id="middle-2" class="st5" d="M105.1,68.6L73.9,99.7v14.9l29.9-28.9C108.4,81.1,108.9,73.8,105.1,68.6z"/>
		</g>
		<g id="inner">
			<path id="bottom-4" class="st6" d="M112.5,104.6c0-7.9-6.1-14.4-13.9-15v29.8h13.9V104.6z"/>
			<path id="side-3" class="st6" d="M86.2,68.6c0-7.5-5.8-13.8-13.3-14.3v65.2h13.3V68.6z"/>
			<path id="middle-3" class="st6" d="M72.9,99.3v17.8l31.7-30.6c5.3-5.3,5.6-13.8,0.6-19.5L72.9,99.3z"/>
		</g>
	</g>
</g>
</svg>
